<?xml version="1.0" encoding="UTF-8" standalone="no"?>
<svg
   width="24"
   height="24"
   viewBox="0 0 24 24"
   version="1.1"
   id="svg16"
   sodipodi:docname="arrow-down.svg"
   inkscape:version="1.2.1 (9c6d41e410, 2022-07-14)"
   xmlns:inkscape="http://www.inkscape.org/namespaces/inkscape"
   xmlns:sodipodi="http://sodipodi.sourceforge.net/DTD/sodipodi-0.dtd"
   xmlns="http://www.w3.org/2000/svg"
   xmlns:svg="http://www.w3.org/2000/svg">
  <defs
     id="defs20" />
  <sodipodi:namedview
     id="namedview18"
     pagecolor="#ffffff"
     bordercolor="#cccccc"
     borderopacity="1"
     inkscape:showpageshadow="0"
     inkscape:pageopacity="1"
     inkscape:pagecheckerboard="0"
     inkscape:deskcolor="#d1d1d1"
     showgrid="false"
     inkscape:zoom="56.214989"
     inkscape:cx="13.546209"
     inkscape:cy="13.172643"
     inkscape:window-width="1280"
     inkscape:window-height="658"
     inkscape:window-x="-8"
     inkscape:window-y="-8"
     inkscape:window-maximized="1"
     inkscape:current-layer="svg16" />
  <path
     fill="#f5f6fa"
     d="M7.41 8.59L12 13.17l4.59-4.58L18 10l-6 6-6-6 1.41-1.41z"
     id="path12" />
  <path
     fill="none"
     d="M0 0h24v24H0V0z"
     id="path14" />
  <path
     style="fill:none;stroke:#000000;stroke-width:1px;stroke-linecap:butt;stroke-linejoin:miter;stroke-opacity:1"
     d="M 6.3535534,9.6264342 12.353553,15.626434"
     id="path297" />
  <path
     style="fill:none;stroke:#000000;stroke-width:1px;stroke-linecap:butt;stroke-linejoin:miter;stroke-opacity:1"
     d="m 6.705,9.295 6.002106,5.985622"
     id="path325" />
  <path
     style="fill:none;stroke:#000000;stroke-width:1px;stroke-linecap:butt;stroke-linejoin:miter;stroke-opacity:1"
     d="M 7.0621734,8.9409608 13.060173,14.960423"
     id="path327" />
  <path
     style="fill:none;stroke:#000000;stroke-width:1px;stroke-linecap:butt;stroke-linejoin:miter;stroke-opacity:1"
     d="M 12.99493,14.333541 17.662012,9.666459"
     id="path331" />
  <path
     style="fill:none;stroke:#000000;stroke-width:1px;stroke-linecap:butt;stroke-linejoin:miter;stroke-opacity:1"
     d="M 12.707106,13.946458 17.295,9.295"
     id="path333" />
  <path
     style="fill:none;stroke:#000000;stroke-width:1px;stroke-linecap:butt;stroke-linejoin:miter;stroke-opacity:1"
     d="M 12.351129,13.537315 16.934985,8.9438873"
     id="path335" />
  <path
     style="fill:none;stroke:#000000;stroke-width:1px;stroke-linecap:butt;stroke-linejoin:miter;stroke-opacity:1"
     d="M 12.351129,13.537315 12,13.17"
     id="path337" />
  <path
     style="opacity:0;fill:#000000;fill-opacity:0"
     id="path388"
     d="m 4.9485707,17.367491 c 0.041918,0.0224 0.083836,0.0448 0.1257537,0.0672 0.015285,-0.0037 0.031276,-0.01708 0.045855,-0.01117 0.056765,0.02302 0.069317,0.05143 0.092724,0.09504 0.051177,0.09533 0.03702,0.05955 0.057621,0.117691 0.014476,0.01871 0.024662,0.04173 0.043428,0.05613 0.1046347,0.08032 0.076771,0.0096 0.2061241,0.07031 0.030961,0.01453 0.052176,0.04424 0.078672,0.06587 0.1541726,0.125853 0.081017,0.05118 0.1934363,0.183148 0.1179903,0.120092 0.073755,0.05495 0.1396654,0.190532 0,0 11.8821378,-7.687032 11.8821378,-7.687032 v 0 c -0.06106,0.03936 -0.04367,0.01638 -0.06623,0.0556 -0.007,0.0015 -0.02573,-7.52e-4 -0.02097,0.0046 0.0064,0.0071 0.02045,0.0091 0.02843,0.0038 0.0076,-0.005 8.27e-4,-0.01924 0.0062,-0.02662 0.03041,-0.04202 0.06551,-0.06794 0.104247,-0.09935 -0.0073,-0.01168 -0.01252,-0.02501 -0.02198,-0.03503 -0.0074,-0.0078 0.005,0.03036 0.01555,0.02822 0.01005,-0.002 -0.01462,-0.02319 -0.0069,-0.02998 0.01186,-0.01046 0.03575,0.0055 0.04712,-0.0055 0.094,-0.09079 -0.07577,-0.09059 0.139492,-0.04216 0,0 -13.0903081,6.998676 -13.0903081,6.998676 z" />
  <path
     style="opacity:0;fill:#000000;fill-opacity:0"
     id="path390"
     d="M 5.4842987,17.946253 C 5.463582,17.771919 5.3784293,17.61021 5.3572539,17.436321 5.3560197,17.426186 5.3433923,17.134632 5.4193974,17.090773 17.573262,10.077391 20.620921,7.7160075 16.910911,10.575206 c -0.139375,0.06357 -0.06682,0.04382 -0.182841,0.05962 -0.02788,0.0038 -0.05541,0.01136 -0.08354,0.01216 -0.0084,2.39e-4 -0.0265,-0.0013 -0.02352,-0.0091 0.02592,-0.06838 0.137138,-0.02918 0.171468,-0.02674 0.310279,0.201908 0.287606,0.147932 0.525643,0.539378 0.04572,0.07519 0.06227,0.164657 0.0964,0.245772 0.01078,0.02563 0.02546,0.04944 0.03819,0.07417 0.01915,0.02447 0.04407,0.04536 0.05746,0.0734 0.01669,0.03497 0.02071,0.07469 0.03106,0.11203 0.0031,0.01856 -0.0019,0.0406 0.0093,0.05567 0.02089,0.02798 0.06375,-0.008 0.07697,-0.01514 0.01925,-0.0104 0.04359,-0.0141 0.05817,-0.03042 0.02147,-0.02405 0.02871,-0.05781 0.04528,-0.08546 0.01982,-0.03307 0.04251,-0.06433 0.06376,-0.09649 0.01436,-0.03657 0.04116,-0.07048 0.04309,-0.10972 0.0062,-0.126249 -0.07293,-0.197948 -0.164525,-0.272102 -0.160909,-0.13027 -0.191043,-0.108171 -0.357392,-0.210111 -0.0467,-0.02862 -0.08872,-0.06425 -0.133085,-0.09638 -0.0037,-0.04442 -0.01861,-0.08934 -0.01099,-0.133252 0.01352,-0.0779 0.09773,-0.243345 0.139482,-0.312436 0.03003,-0.04969 0.09938,-0.184368 0.190668,-0.172685 0.05373,0.0069 0.09455,0.05289 0.141829,0.07934 0.111539,0.07702 0.09373,0.06031 0.19776,0.15021 0.02246,0.01941 0.04263,0.04146 0.06577,0.06005 0.01397,0.01122 0.02803,0.03418 0.0452,0.02908 0.03414,-0.01015 0.04549,-0.141259 0.04613,-0.144983 C 17.988848,10.140066 17.89148,9.9725326 17.782088,9.7973689 17.689808,9.6496076 17.594701,9.5036285 17.501974,9.3561479 17.344717,9.2705569 17.262643,9.1055114 17.11805,9.0046858 17.07694,8.9760168 17.02785,8.9609588 16.982701,8.9391818 16.768362,8.8357836 16.872039,8.8826648 16.64453,8.7880216 16.56304,8.7363736 16.44894,8.6686977 16.372221,8.6047261 c -0.03542,-0.029538 -0.0666,-0.063823 -0.0999,-0.095734 C 12.255055,10.8216 8.1981812,13.06673 4.2205225,15.446817 c -0.070665,0.04228 0.018399,0.166921 0.054402,0.240983 0.043431,0.08934 0.1191251,0.159003 0.1786876,0.238505 0.1238633,0.04936 0.2489475,0.09576 0.3715898,0.148079 0.1924376,0.0821 0.3500689,0.138422 0.4874466,0.303107 0.1423373,0.17063 0.140054,0.280405 0.198358,0.485193 0.026789,0.09409 0.056696,0.187268 0.085044,0.280902 0.1026977,0.244409 0.096133,0.28036 0.2637518,0.483059 0.1261355,0.152534 0.1851251,0.167718 0.3121074,0.306848 0.034975,0.03832 0.063082,0.08239 0.094623,0.123582 0,0 10.7071353,-7.451157 10.7071353,-7.451157 v 0 c -0.315155,0.126341 -0.03483,0.01565 -0.311171,0.120654 -0.01041,0.004 -0.21825,0.08547 -0.22907,0.08876 -0.04219,0.01285 -0.08591,0.02003 -0.128858,0.03004 -0.03943,-0.0045 -0.08277,0.0041 -0.118285,-0.01363 -0.199652,-0.09964 -0.0568,-0.330229 0.04109,-0.437947 0.07245,-0.07972 0.152068,-0.157774 0.247413,-0.207913 0.11785,-0.06197 0.25354,-0.08146 0.380311,-0.122187 0.07691,0.02271 0.159595,0.03109 0.230724,0.06812 0.05484,0.02855 0.191289,0.09241 0.138063,0.123868 -3.950966,2.335328 -7.9431889,4.600579 -11.9419253,6.853132 -0.043789,0.02467 0.021999,-0.09815 0.036107,-0.14639 0.05589,-0.191105 0.032804,-0.03556 0.049912,-0.220499 -0.00401,-0.0168 -0.00714,-0.03384 -0.012028,-0.0504 -0.00332,-0.01126 -0.00838,-0.02193 -0.012573,-0.03289 -0.00156,-0.002 -0.00373,-0.0037 -0.00469,-0.006 -0.00757,-0.01874 -0.014517,-0.03776 -0.020767,-0.05698 -0.00394,-0.01211 6.26e-5,-0.02882 -0.00976,-0.03692 -0.01495,-0.01232 -0.03706,-0.01128 -0.05559,-0.01692 -0.064385,-0.108977 -0.08062,-0.150855 -0.1820207,-0.246165 -0.029055,-0.02731 -0.068231,-0.0417 -0.099343,-0.06664 -0.033904,-0.02718 -0.061246,-0.06192 -0.095062,-0.08921 -0.032017,-0.02584 -0.076694,-0.04431 -0.1139027,-0.06161 -0.010362,-0.0096 -0.017504,-0.02489 -0.031086,-0.02866 -0.033663,-0.0093 -0.039236,0.05652 -0.039011,0.10714 7.072e-4,0.15891 0.077143,0.298878 0.1436185,0.438363 0.093912,0.127705 0.1059524,0.19502 0.2497423,0.244406 0.037149,0.01276 0.078309,0.0072 0.1170006,0.01401 0.03827,0.0067 0.076027,0.01622 0.1135453,0.0263 0.035491,0.0095 0.078881,0.007 0.1053424,0.03254 0.024604,0.02371 0.020063,0.06533 0.030095,0.098 -0.031711,0.0467 -0.056558,0.09889 -0.095133,0.14011 -0.042959,0.0459 -0.090536,0.09037 -0.1468073,0.118397 -0.1017362,0.05068 -0.2270413,0.05924 -0.3361979,0.03235 -0.068829,-0.01696 -0.062785,-0.02181 -0.064443,-0.06131 0.021041,-0.0052 -0.00978,0.0014 -0.016711,0.01716 -0.010554,0.02401 -0.010455,0.0515 -0.018316,0.07652 -0.0096,0.03055 -0.024743,0.05919 -0.033958,0.08986 -0.028507,0.09487 -0.038475,0.19477 -0.073889,0.28784 -7.644e-4,0.07131 -0.010886,0.143143 -0.00229,0.213941 0.00687,0.05657 0.032528,0.109242 0.04817,0.164043 0.040696,0.142581 0.09898,0.381471 0.1625544,0.490317 0.092333,0.158086 0.1967846,0.313491 0.3301257,0.438936 0.087705,0.08251 0.2121416,0.114008 0.3182124,0.171012 0.081406,-0.0055 0.1652224,0.004 0.244218,-0.01644 0.067773,-0.01751 0.1254452,-0.0622 0.1872545,-0.09505 0.052144,-0.02772 0.1039214,-0.0562 0.1545321,-0.08663 0.1169608,-0.07032 0.224646,-0.16075 0.3615455,-0.190984 3.4221031,3.085638 0.085875,0.10457 11.9003592,-6.693434 0.169112,-0.09731 0.265811,-0.3085 0.282726,-0.493043 0.0095,-0.103826 -0.06166,-0.485768 -0.08298,-0.609838 0,0 -13.0861831,6.942302 -13.0861831,6.942302 z" />
</svg>
